<?xml version="1.0" standalone="no"?>
<!DOCTYPE svg PUBLIC "-//W3C//DTD SVG 20010904//EN"
 "http://www.w3.org/TR/2001/REC-SVG-20010904/DTD/svg10.dtd">
<svg version="1.0" xmlns="http://www.w3.org/2000/svg"
 width="80px" height="80px" viewBox="0 0 1000.000000 1080.000000"
 preserveAspectRatio="xMidYMid meet">

<g transform="translate(0.000000,1080.000000) scale(0.100000,-0.100000)"
fill="#000000" stroke="none">
<path d="M4741 9639 c-618 -55 -1208 -299 -1681 -697 -125 -105 -337 -323
-429 -442 -558 -718 -767 -1622 -580 -2498 204 -954 863 -1757 1759 -2140 380
-163 768 -242 1190 -242 196 0 323 10 505 40 1143 191 2086 1040 2400 2160
233 834 93 1740 -380 2460 -118 180 -212 297 -360 449 -267 274 -526 461 -860
622 -298 143 -590 230 -921 274 -143 19 -499 27 -643 14z m466 -270 c362 -29
676 -116 998 -274 336 -165 630 -390 861 -658 382 -443 607 -963 665 -1530 17
-176 7 -548 -20 -706 -104 -607 -380 -1131 -812 -1546 -423 -405 -925 -648
-1529 -742 -163 -25 -577 -25 -740 0 -604 94 -1106 337 -1529 742 -432 415
-708 939 -812 1546 -27 158 -37 530 -20 706 64 632 343 1217 796 1668 218 218
448 382 730 520 446 219 934 314 1412 274z"/>
<path d="M4790 9204 c-379 -44 -626 -113 -925 -259 -270 -132 -463 -272 -685
-494 -419 -420 -662 -918 -742 -1521 -20 -156 -15 -499 11 -668 135 -887 715
-1643 1528 -1994 201 -86 377 -138 608 -179 150 -27 528 -38 687 -19 601 68
1135 326 1555 751 404 408 647 900 729 1474 21 147 24 496 6 635 -63 476 -227
883 -503 1250 -296 394 -724 711 -1184 878 -131 48 -359 105 -505 127 -100 16
-499 28 -580 19z m281 -1130 c67 -31 124 -87 156 -152 l28 -57 3 -437 3 -438
180 0 c195 0 218 -5 258 -56 29 -36 29 -112 0 -148 -40 -51 -63 -56 -259 -56
l-180 0 0 -94 0 -94 188 -4 c164 -3 190 -5 215 -22 37 -25 57 -66 57 -117 0
-35 -6 -48 -39 -80 l-39 -39 -191 0 -191 0 0 -300 0 -301 146 3 146 3 14 35
c7 19 180 517 385 1105 204 589 380 1091 391 1117 43 101 162 169 266 153 139
-21 231 -136 220 -273 -4 -41 -121 -390 -416 -1237 -225 -649 -428 -1232 -450
-1295 l-39 -115 -459 -3 c-511 -3 -523 -1 -606 63 -28 22 -59 60 -79 98 l-34
62 -3 443 -3 442 -191 0 -190 0 -39 39 c-33 32 -39 45 -39 80 0 51 20 92 57
117 25 17 51 19 216 22 l187 4 0 94 0 94 -184 0 c-174 0 -185 1 -217 23 -85
57 -79 175 11 222 23 12 70 15 210 15 l180 0 0 295 0 295 -148 0 -148 0 -93
-267 c-51 -148 -117 -338 -147 -423 -610 -1763 -563 -1644 -661 -1691 -131
-63 -279 -16 -345 110 -50 95 -46 119 96 528 69 197 260 750 426 1228 166 479
312 902 326 940 13 39 27 76 29 83 4 10 97 12 477 10 459 -3 474 -4 519 -24z"/>
<path d="M2496 2818 c-31 -29 -320 -800 -311 -829 8 -23 47 -34 73 -20 11 6
31 43 49 93 l30 83 203 0 202 0 32 -85 c26 -70 36 -86 59 -94 32 -12 60 1 65
29 2 10 -62 194 -143 409 -149 396 -169 436 -215 436 -10 0 -30 -10 -44 -22z
m131 -343 l80 -224 -164 -3 c-100 -2 -163 1 -163 7 0 18 153 445 160 445 4 0
43 -101 87 -225z"/>
<path d="M5868 2812 c-148 -54 -235 -190 -246 -383 -10 -205 66 -357 216 -431
61 -30 73 -33 162 -32 148 1 264 54 258 117 -5 54 -28 56 -113 12 -68 -35 -85
-39 -148 -40 -61 0 -79 4 -119 28 -121 70 -181 276 -130 444 41 133 117 204
228 211 81 5 100 0 162 -43 29 -19 58 -35 66 -35 19 0 46 27 46 47 0 30 -73
90 -130 107 -70 21 -192 20 -252 -2z"/>
<path d="M7017 2812 c-49 -54 18 -137 78 -98 55 36 35 116 -29 116 -19 0 -40
-8 -49 -18z"/>
<path d="M2996 2601 c-16 -17 -17 -43 -14 -248 3 -213 4 -231 25 -269 30 -57
74 -91 140 -110 101 -29 212 -4 275 63 55 57 62 90 66 313 2 129 0 215 -7 232
-13 36 -55 47 -81 23 -19 -17 -20 -32 -20 -233 0 -252 -5 -272 -78 -304 -79
-35 -163 -12 -199 55 -15 27 -18 64 -21 252 -3 190 -5 222 -19 233 -24 17 -47
15 -67 -7z"/>
<path d="M3657 2612 c-10 -2 -22 -15 -28 -28 -5 -14 -9 -151 -9 -305 0 -266 1
-280 20 -299 25 -25 52 -26 73 -2 15 16 17 46 17 208 1 252 13 282 135 318 26
8 52 21 56 28 28 43 -16 96 -67 84 -36 -9 -81 -44 -104 -81 l-20 -30 0 36 c0
52 -29 81 -73 71z"/>
<path d="M4019 2599 c-20 -20 -21 -29 -17 -242 3 -166 7 -230 18 -252 47 -99
114 -139 230 -140 93 0 138 15 189 65 62 60 71 105 71 350 0 195 -1 208 -20
225 -16 15 -26 17 -48 9 l-27 -9 -5 -225 c-6 -242 -12 -271 -63 -305 -41 -26
-109 -30 -159 -7 -73 32 -78 52 -78 301 0 198 -1 212 -20 231 -26 26 -45 25
-71 -1z"/>
<path d="M4672 2604 c-22 -15 -22 -17 -22 -314 0 -258 2 -301 16 -314 21 -21
47 -20 67 2 15 16 17 47 17 231 0 234 6 262 59 294 69 41 150 26 195 -36 19
-26 21 -46 26 -257 3 -126 8 -232 12 -235 4 -4 19 -7 33 -7 52 0 53 6 57 250
3 255 4 259 76 293 67 33 139 14 179 -48 15 -23 19 -60 23 -255 4 -189 8 -230
20 -238 22 -14 47 -12 64 6 14 13 16 49 16 242 0 207 -2 231 -21 272 -25 56
-44 77 -91 101 -91 46 -193 32 -264 -36 l-45 -42 -19 28 c-61 85 -198 102
-278 34 -36 -30 -42 -31 -42 -6 0 17 -33 51 -50 51 -3 0 -16 -7 -28 -16z"/>
<path d="M6555 2611 c-76 -19 -149 -84 -187 -166 -19 -42 -23 -67 -23 -155 0
-88 4 -113 23 -155 28 -60 82 -119 137 -148 57 -30 174 -30 231 1 58 30 103
78 133 142 23 48 26 68 26 160 -1 94 -3 111 -28 161 -61 126 -187 190 -312
160z m135 -103 c88 -45 129 -189 91 -321 -38 -132 -185 -179 -272 -87 -107
113 -82 353 44 411 55 24 83 24 137 -3z"/>
<path d="M7027 2602 c-15 -16 -17 -53 -17 -314 0 -284 1 -296 20 -313 30 -27
71 -11 82 33 5 18 8 157 6 308 -3 259 -4 276 -22 290 -27 19 -50 18 -69 -4z"/>
<path d="M7278 2609 c-17 -9 -18 -35 -18 -319 0 -296 1 -310 19 -320 27 -14
47 -13 65 6 14 13 16 48 16 228 0 204 1 214 23 246 36 54 68 72 127 72 56 0
87 -16 124 -66 19 -25 21 -43 24 -247 l3 -219 25 -16 c22 -15 26 -15 50 1 l25
16 -3 237 -3 237 -28 47 c-40 69 -102 103 -187 103 -67 -1 -113 -17 -157 -58
l-23 -20 0 25 c0 27 -28 58 -51 58 -8 0 -22 -5 -31 -11z"/>
<path d="M0 400 l0 -400 5000 0 5000 0 0 400 0 400 -5000 0 -5000 0 0 -400z
m2192 123 c23 -20 23 -57 1 -74 -15 -11 -16 -11 -5 1 27 31 11 72 -33 83 -19
4 -19 5 -1 6 11 0 28 -6 38 -16z m-69 -8 c-3 -9 -8 -14 -10 -11 -3 3 -2 9 2
15 9 16 15 13 8 -4z m-1760 -114 c22 -61 43 -108 47 -104 4 4 24 56 45 116 21
59 42 107 47 107 11 0 9 -5 -42 -149 -23 -64 -44 -107 -53 -109 -15 -3 -17 0
-67 143 -15 44 -31 88 -36 99 -5 13 -3 17 6 14 8 -2 32 -55 53 -117z m517 89
c0 -23 4 -30 20 -30 11 0 20 -4 20 -10 0 -5 -10 -10 -21 -10 -20 0 -21 -4 -17
-71 3 -55 8 -74 23 -85 23 -17 14 -29 -13 -15 -11 6 -22 25 -26 42 -10 51 -7
209 4 209 6 0 10 -13 10 -30z m515 16 c25 -11 33 -19 29 -30 -7 -19 -5 -19
-40 -1 -36 18 -55 19 -78 2 -28 -21 -9 -45 49 -62 87 -25 108 -74 54 -127 -29
-29 -33 -30 -90 -25 -68 6 -72 8 -64 29 5 13 12 14 40 5 50 -15 100 1 100 33
0 16 -8 28 -25 36 -87 40 -105 51 -108 67 -14 70 53 106 133 73z m105 -16 c0
-25 4 -30 25 -30 16 0 25 -6 25 -15 0 -9 -9 -15 -25 -15 -24 0 -25 -3 -25 -60
0 -55 2 -62 25 -72 14 -6 25 -15 25 -20 0 -18 -31 -20 -55 -4 -24 16 -25 20
-25 131 0 96 3 115 15 115 10 0 15 -10 15 -30z m482 -32 l3 -62 36 32 c20 18
45 32 55 32 14 0 9 -9 -21 -40 l-39 -40 42 -60 c40 -57 41 -60 20 -60 -16 0
-32 14 -53 45 -16 25 -33 45 -37 45 -5 0 -8 -20 -8 -45 0 -38 -3 -45 -20 -45
-19 0 -20 7 -20 130 0 122 1 130 20 130 16 0 19 -8 22 -62z m193 30 c1 -20 -2
-24 -11 -17 -8 7 -14 6 -17 -3 -3 -7 -6 2 -6 20 -1 27 3 33 17 30 11 -2 17
-13 17 -30z m-44 -35 c13 -16 12 -17 -3 -4 -17 13 -22 21 -14 21 2 0 10 -8 17
-17z m-1502 -19 c12 -15 21 -40 21 -55 0 -29 0 -29 -65 -29 -72 0 -83 -12 -44
-51 17 -17 30 -20 65 -16 43 4 59 -5 28 -17 -45 -17 -106 3 -123 41 -45 98 56
206 118 127z m191 16 c17 -11 10 -13 -40 -10 -47 2 -75 -28 -75 -80 0 -55 26
-80 82 -80 27 0 42 -4 38 -10 -9 -15 -78 -12 -102 5 -50 35 -50 135 0 170 24
17 74 20 97 5z m265 -13 c20 -16 28 -35 32 -69 5 -42 3 -50 -25 -78 -41 -41
-83 -41 -124 0 -28 28 -30 36 -25 78 9 82 84 119 142 69z m85 7 c0 -14 2 -14
22 0 24 17 38 20 38 9 0 -5 -14 -16 -30 -25 -29 -17 -30 -19 -30 -93 0 -43 -4
-75 -10 -75 -6 0 -10 40 -10 100 0 60 4 100 10 100 6 0 10 -7 10 -16z m537 1
c30 -21 44 -75 32 -120 -25 -88 -143 -88 -168 0 -20 72 20 135 84 135 17 0 40
-7 52 -15z m198 -5 c0 -10 -8 -14 -27 -12 -58 6 -91 -42 -67 -100 11 -28 36
-40 74 -35 12 1 20 -4 20 -13 0 -19 -48 -25 -85 -10 -63 26 -68 148 -6 179 31
15 91 9 91 -9z m5374 -83 c8 -26 17 -47 21 -47 4 0 13 21 21 47 8 25 20 48 27
51 8 2 4 -19 -12 -63 -36 -99 -36 -99 -72 0 -16 44 -20 65 -12 63 7 -3 19 -26
27 -51z m638 38 c2 -6 -9 -11 -23 -10 -38 0 -40 -20 -5 -35 69 -28 36 -101
-33 -74 -27 10 -18 22 15 20 43 -2 49 22 10 35 -34 12 -49 43 -30 65 13 16 60
15 66 -1z m333 -20 c0 -35 16 -47 26 -20 4 8 13 15 22 15 13 0 13 -3 -2 -19
-16 -18 -16 -21 -1 -50 19 -38 8 -40 -22 -3 l-22 27 -1 -27 c0 -16 -4 -28 -10
-28 -6 0 -10 30 -10 70 0 40 4 70 10 70 6 0 10 -16 10 -35z m580 32 c0 -4 -34
-104 -45 -136 -3 -8 -8 -11 -11 -8 -8 7 38 147 48 147 4 0 8 -2 8 -3z m98 -9
c21 -21 13 -45 -25 -77 l-38 -30 43 -1 c23 0 42 -4 42 -10 0 -5 -22 -10 -50
-10 -62 0 -65 15 -14 63 42 40 39 62 -8 53 -26 -5 -29 -4 -18 9 15 18 51 20
68 3z m116 -10 c44 -63 -17 -154 -68 -102 -9 9 -16 32 -16 54 0 64 52 94 84
48z m118 -30 c2 -29 2 -61 0 -70 -5 -22 -22 -24 -22 -3 0 10 -10 15 -30 15
-16 0 -30 3 -30 6 0 16 56 104 67 104 6 0 13 -22 15 -52z m128 42 c0 -5 -11
-10 -25 -10 -14 0 -29 -8 -36 -21 -9 -18 -8 -20 9 -15 12 4 28 -1 43 -13 21
-16 22 -22 11 -45 -22 -48 -92 -22 -92 34 0 37 35 80 66 80 13 0 24 -4 24 -10z
m97 -2 c14 -23 12 -106 -2 -118 -33 -27 -86 8 -70 46 4 11 7 27 6 37 -5 38 47
64 66 35z m93 -48 c0 -33 4 -60 10 -60 6 0 10 -4 10 -10 0 -5 -13 -10 -30 -10
-16 0 -30 5 -30 10 0 6 5 10 10 10 6 0 10 20 10 45 0 38 -2 43 -17 38 -16 -6
-16 -4 1 15 29 34 36 27 36 -38z m90 0 c0 -33 4 -60 10 -60 6 0 10 -4 10 -10
0 -5 -13 -10 -30 -10 -16 0 -30 5 -30 10 0 6 5 10 10 10 6 0 10 20 10 45 0 38
-2 43 -17 38 -16 -6 -16 -4 1 15 29 34 36 27 36 -38z m122 8 c2 -29 2 -61 0
-70 -5 -22 -22 -24 -22 -3 0 10 -10 15 -30 15 -16 0 -30 3 -30 6 0 16 56 104
67 104 6 0 13 -22 15 -52z m-2072 7 c9 -10 9 -15 1 -15 -15 0 -14 -57 2 -63 6
-2 9 -8 4 -13 -12 -13 -34 18 -40 58 -7 49 8 64 33 33z m360 0 c9 -10 9 -15 1
-15 -15 0 -14 -57 2 -63 6 -2 9 -7 6 -11 -15 -17 -37 8 -41 47 -7 58 5 74 32
42z m-532 -7 c23 -23 13 -38 -24 -38 -41 0 -44 -24 -3 -27 42 -2 44 -3 29 -13
-35 -23 -80 1 -80 44 0 28 18 46 45 46 12 0 26 -5 33 -12z m109 5 c14 -6 10
-9 -17 -13 -29 -4 -35 -9 -35 -30 0 -21 5 -26 33 -28 36 -4 34 -22 -3 -22 -28
0 -55 24 -55 50 0 22 25 50 45 50 7 0 22 -3 32 -7z m177 -9 c21 -20 20 -43 -1
-66 -20 -22 -46 -23 -67 -2 -31 30 -9 84 34 84 10 0 26 -7 34 -16z m86 6 c0
-4 -7 -10 -15 -14 -9 -3 -15 -19 -15 -41 0 -19 -4 -35 -10 -35 -5 0 -10 22
-10 49 0 45 2 49 25 49 14 0 25 -4 25 -8z m274 -6 c31 -30 9 -84 -34 -84 -24
0 -50 26 -50 50 0 24 26 50 50 50 10 0 26 -7 34 -16z m113 9 c14 -6 10 -9 -17
-13 -29 -4 -35 -9 -35 -30 0 -21 6 -26 35 -30 27 -4 31 -7 17 -13 -10 -4 -25
-7 -32 -7 -20 0 -45 28 -45 50 0 22 25 50 45 50 7 0 22 -3 32 -7z m258 -2 c3
-5 -9 -11 -27 -13 -28 -2 -33 -7 -33 -28 0 -21 5 -26 33 -28 36 -4 34 -22 -3
-22 -28 0 -55 24 -55 50 0 37 67 69 85 41z m99 -7 c21 -20 20 -43 -1 -66 -20
-22 -46 -23 -67 -2 -31 30 -9 84 34 84 10 0 26 -7 34 -16z m112 5 c8 -7 14 -6
19 1 10 16 42 12 49 -6 10 -25 7 -84 -4 -84 -5 0 -10 18 -10 41 0 33 -3 40
-17 37 -13 -2 -19 -14 -21 -41 -4 -50 -22 -47 -22 4 0 36 -2 40 -22 37 -19 -2
-24 -10 -26 -40 -5 -55 -22 -46 -22 10 0 48 0 49 32 50 18 0 38 -4 44 -9z
m-326 -79 c0 -5 -4 -10 -10 -10 -5 0 -10 5 -10 10 0 6 5 10 10 10 6 0 10 -4
10 -10z"/>
<path d="M2150 500 c0 -5 5 -10 10 -10 6 0 10 5 10 10 0 6 -4 10 -10 10 -5 0
-10 -4 -10 -10z"/>
<path d="M536 418 c-28 -39 -21 -48 39 -48 59 0 67 9 45 51 -15 27 -64 25 -84
-3z"/>
<path d="M986 424 c-50 -50 -21 -144 44 -144 48 0 80 50 66 104 -13 53 -75 75
-110 40z"/>
<path d="M1616 408 c-32 -46 -8 -118 39 -118 28 0 55 34 55 70 0 36 -27 70
-55 70 -13 0 -31 -10 -39 -22z"/>
<path d="M8984 365 c-9 -38 3 -75 26 -75 13 0 22 9 26 25 9 38 -3 75 -26 75
-13 0 -22 -9 -26 -25z"/>
<path d="M9117 350 c-18 -29 -18 -30 2 -30 17 0 21 6 21 30 0 17 -1 30 -3 30
-1 0 -11 -13 -20 -30z"/>
<path d="M9226 331 c-11 -18 6 -42 28 -39 29 4 29 42 -1 46 -11 2 -24 -1 -27
-7z"/>
<path d="M9342 374 c2 -11 11 -20 22 -22 13 -3 17 1 14 14 -2 11 -11 20 -22
22 -13 3 -17 -1 -14 -14z"/>
<path d="M9334 325 c-8 -21 10 -39 30 -32 22 9 20 24 -4 37 -16 9 -22 8 -26
-5z"/>
<path d="M9647 350 c-18 -29 -18 -30 2 -30 17 0 21 6 21 30 0 17 -1 30 -3 30
-1 0 -11 -13 -20 -30z"/>
<path d="M7395 340 c-4 -6 5 -10 19 -10 14 0 26 5 26 10 0 6 -9 10 -19 10 -11
0 -23 -4 -26 -10z"/>
<path d="M7674 336 c-10 -26 4 -48 28 -44 17 2 23 10 23 28 0 18 -6 26 -23 28
-13 2 -25 -3 -28 -12z"/>
<path d="M8034 336 c-10 -26 4 -48 28 -44 17 2 23 10 23 28 0 18 -6 26 -23 28
-13 2 -25 -3 -28 -12z"/>
<path d="M8504 336 c-10 -26 4 -48 28 -44 17 2 23 10 23 28 0 18 -6 26 -23 28
-13 2 -25 -3 -28 -12z"/>
</g>
</svg>
