<?xml version="1.0" encoding="utf-8"?>
<!-- Generator: Adobe Illustrator 25.0.1, SVG Export Plug-In . SVG Version: 6.00 Build 0)  -->
<svg version="1.0" id="katman_1" xmlns="http://www.w3.org/2000/svg" xmlns:xlink="http://www.w3.org/1999/xlink" x="0px" y="0px"
	width="80px" height="80px" viewBox="0 0 852.1 685.6" style="enable-background:new 0 0 852.1 685.6;" xml:space="preserve">
<style type="text/css">
	.st0{fill-rule:evenodd;clip-rule:evenodd;fill:url(#SVGID_1_);}
	.st1{fill-rule:evenodd;clip-rule:evenodd;fill:#FFFFFF;}
</style>
<g id="Layer_2">
	<g id="Layer_1-2">
		<g id="Layer_1-3">
			
				<linearGradient id="SVGID_1_" gradientUnits="userSpaceOnUse" x1="6201.9028" y1="5919.9404" x2="14680.5117" y2="5919.9404" gradientTransform="matrix(7.000000e-02 0 0 7.000000e-02 -323.7259 -71.6099)">
				<stop  offset="0" style="stop-color:#D8B35D"/>
				<stop  offset="1" style="stop-color:#F5E7BF"/>
			</linearGradient>
			<path class="st0" d="M232.2,79.3L120.6,313.7c-0.9,1.7-0.5,3.9,0.9,5.2l301.3,288.9c1.8,1.6,4.5,1.6,6.3,0l301.5-288.9
				c1.4-1.3,1.8-3.5,0.9-5.2L619.9,79.3c-0.6-1.7-2.2-2.8-4-2.7H236.2C234.4,76.6,232.9,77.7,232.2,79.3L232.2,79.3z"/>
			<path class="st1" d="M464.8,337.7L464.8,337.7c-2.2,0.2-13.3,0.9-38.2,0.9c-19.8,0-33.9-0.5-39-0.9l0,0
				c-76.6-3.4-133.8-16.8-133.8-32.6s57.2-29.4,133.8-32.8v52.1c5,0.4,19.3,1.3,39.1,1.3c23.8,0,35.7-1.1,37.9-1.3v-52.1
				c76.4,3.4,133.6,16.8,133.6,32.6S541.3,334.2,464.8,337.7L464.8,337.7z M464.8,267v-46.7h106.8v-71.2H280.9v71.2h106.7V267
				c-86.7,4-152,21.1-152,41.8c0,20.7,65.3,37.7,152,41.8v149.5h77.2V350.6c86.5-4,151.6-21.1,151.6-41.6S551.4,271,464.8,267
				L464.8,267L464.8,267z"/>
		</g>
	</g>
</g>
</svg>
